<svg width="24" height="24" viewBox="0 0 8 8" fill="none" xmlns="http://www.w3.org/2000/svg">
    <path d="M5.18519 3.9986L7.75681 1.42787C8.08106 1.10374 8.08106 0.567237 7.75681 0.243102C7.43256 -0.0810339 6.89588 -0.0810339 6.57163 0.243102L4 2.81383L1.42837 0.243102C1.10412 -0.0810339 0.567435 -0.0810339 0.243187 0.243102C-0.0810622 0.567237 -0.0810622 1.10374 0.243187 1.42787L2.81481 3.9986L0.243187 6.56933C-0.0810622 6.89347 -0.0810622 7.42997 0.243187 7.7541C0.410902 7.92176 0.62334 8 0.835779 8C1.04822 8 1.26066 7.92176 1.42837 7.7541L4 5.18337L6.57163 7.7541C6.73934 7.92176 6.95178 8 7.16422 8C7.37666 8 7.5891 7.92176 7.75681 7.7541C8.08106 7.42997 8.08106 6.89347 7.75681 6.56933L5.18519 3.9986Z" fill="#fff"/>
</svg>
